<mxfile host="app.diagrams.net" agent="Mozilla/5.0 (Windows NT 10.0; Win64; x64) AppleWebKit/537.36 (KHTML, like Gecko) Chrome/134.0.0.0 Safari/537.36" version="26.1.0">
  <diagram id="C5RBs43oDa-KdzZeNtuy" name="Page-1">
    <mxGraphModel dx="1500" dy="814" grid="1" gridSize="10" guides="1" tooltips="1" connect="1" arrows="1" fold="1" page="1" pageScale="1" pageWidth="827" pageHeight="1169" math="0" shadow="0">
      <root>
        <mxCell id="WIyWlLk6GJQsqaUBKTNV-0" />
        <mxCell id="WIyWlLk6GJQsqaUBKTNV-1" parent="WIyWlLk6GJQsqaUBKTNV-0" />
        <mxCell id="XS5C7Bav8lUVdZ2p9Nv9-7" style="edgeStyle=orthogonalEdgeStyle;rounded=0;orthogonalLoop=1;jettySize=auto;html=1;entryX=0.5;entryY=0;entryDx=0;entryDy=0;" edge="1" parent="WIyWlLk6GJQsqaUBKTNV-1" source="XS5C7Bav8lUVdZ2p9Nv9-0" target="XS5C7Bav8lUVdZ2p9Nv9-2">
          <mxGeometry relative="1" as="geometry" />
        </mxCell>
        <mxCell id="XS5C7Bav8lUVdZ2p9Nv9-0" value="Start" style="strokeWidth=2;html=1;shape=mxgraph.flowchart.terminator;whiteSpace=wrap;" vertex="1" parent="WIyWlLk6GJQsqaUBKTNV-1">
          <mxGeometry x="170" y="90" width="100" height="60" as="geometry" />
        </mxCell>
        <mxCell id="XS5C7Bav8lUVdZ2p9Nv9-1" value="End" style="strokeWidth=2;html=1;shape=mxgraph.flowchart.terminator;whiteSpace=wrap;" vertex="1" parent="WIyWlLk6GJQsqaUBKTNV-1">
          <mxGeometry x="170" y="770" width="100" height="60" as="geometry" />
        </mxCell>
        <mxCell id="XS5C7Bav8lUVdZ2p9Nv9-4" style="edgeStyle=orthogonalEdgeStyle;rounded=0;orthogonalLoop=1;jettySize=auto;html=1;entryX=0.5;entryY=0;entryDx=0;entryDy=0;" edge="1" parent="WIyWlLk6GJQsqaUBKTNV-1" source="XS5C7Bav8lUVdZ2p9Nv9-2" target="XS5C7Bav8lUVdZ2p9Nv9-3">
          <mxGeometry relative="1" as="geometry" />
        </mxCell>
        <mxCell id="XS5C7Bav8lUVdZ2p9Nv9-2" value="Input Student&lt;br&gt;name" style="shape=parallelogram;html=1;strokeWidth=2;perimeter=parallelogramPerimeter;whiteSpace=wrap;rounded=1;arcSize=12;size=0.23;" vertex="1" parent="WIyWlLk6GJQsqaUBKTNV-1">
          <mxGeometry x="140" y="185" width="160" height="50" as="geometry" />
        </mxCell>
        <mxCell id="XS5C7Bav8lUVdZ2p9Nv9-6" style="edgeStyle=orthogonalEdgeStyle;rounded=0;orthogonalLoop=1;jettySize=auto;html=1;entryX=0.5;entryY=0;entryDx=0;entryDy=0;" edge="1" parent="WIyWlLk6GJQsqaUBKTNV-1" source="XS5C7Bav8lUVdZ2p9Nv9-3" target="XS5C7Bav8lUVdZ2p9Nv9-5">
          <mxGeometry relative="1" as="geometry" />
        </mxCell>
        <mxCell id="XS5C7Bav8lUVdZ2p9Nv9-3" value="Input grades for 5&lt;br&gt;subjects" style="shape=parallelogram;html=1;strokeWidth=2;perimeter=parallelogramPerimeter;whiteSpace=wrap;rounded=1;arcSize=12;size=0.23;" vertex="1" parent="WIyWlLk6GJQsqaUBKTNV-1">
          <mxGeometry x="140" y="270" width="160" height="50" as="geometry" />
        </mxCell>
        <mxCell id="XS5C7Bav8lUVdZ2p9Nv9-5" value="Calculate average grade: (grade1 + grade2 + grade3 + grade4+ grade5) / 5" style="rounded=0;whiteSpace=wrap;html=1;" vertex="1" parent="WIyWlLk6GJQsqaUBKTNV-1">
          <mxGeometry x="160" y="360" width="120" height="70" as="geometry" />
        </mxCell>
        <mxCell id="XS5C7Bav8lUVdZ2p9Nv9-13" style="edgeStyle=orthogonalEdgeStyle;rounded=0;orthogonalLoop=1;jettySize=auto;html=1;entryX=0.5;entryY=0;entryDx=0;entryDy=0;" edge="1" parent="WIyWlLk6GJQsqaUBKTNV-1" source="XS5C7Bav8lUVdZ2p9Nv9-8" target="XS5C7Bav8lUVdZ2p9Nv9-12">
          <mxGeometry relative="1" as="geometry" />
        </mxCell>
        <mxCell id="XS5C7Bav8lUVdZ2p9Nv9-14" style="edgeStyle=orthogonalEdgeStyle;rounded=0;orthogonalLoop=1;jettySize=auto;html=1;entryX=0.5;entryY=0;entryDx=0;entryDy=0;" edge="1" parent="WIyWlLk6GJQsqaUBKTNV-1" source="XS5C7Bav8lUVdZ2p9Nv9-8" target="XS5C7Bav8lUVdZ2p9Nv9-11">
          <mxGeometry relative="1" as="geometry" />
        </mxCell>
        <mxCell id="XS5C7Bav8lUVdZ2p9Nv9-8" value="if (total &amp;gt;= 75)" style="strokeWidth=2;html=1;shape=mxgraph.flowchart.decision;whiteSpace=wrap;" vertex="1" parent="WIyWlLk6GJQsqaUBKTNV-1">
          <mxGeometry x="170" y="470" width="100" height="90" as="geometry" />
        </mxCell>
        <mxCell id="XS5C7Bav8lUVdZ2p9Nv9-9" style="edgeStyle=orthogonalEdgeStyle;rounded=0;orthogonalLoop=1;jettySize=auto;html=1;entryX=0.5;entryY=0;entryDx=0;entryDy=0;entryPerimeter=0;" edge="1" parent="WIyWlLk6GJQsqaUBKTNV-1" source="XS5C7Bav8lUVdZ2p9Nv9-5" target="XS5C7Bav8lUVdZ2p9Nv9-8">
          <mxGeometry relative="1" as="geometry" />
        </mxCell>
        <mxCell id="XS5C7Bav8lUVdZ2p9Nv9-24" style="edgeStyle=orthogonalEdgeStyle;rounded=0;orthogonalLoop=1;jettySize=auto;html=1;entryX=0.5;entryY=0;entryDx=0;entryDy=0;" edge="1" parent="WIyWlLk6GJQsqaUBKTNV-1" source="XS5C7Bav8lUVdZ2p9Nv9-11" target="XS5C7Bav8lUVdZ2p9Nv9-20">
          <mxGeometry relative="1" as="geometry">
            <mxPoint x="260" y="600" as="targetPoint" />
          </mxGeometry>
        </mxCell>
        <mxCell id="XS5C7Bav8lUVdZ2p9Nv9-11" value="fail" style="rounded=0;whiteSpace=wrap;html=1;" vertex="1" parent="WIyWlLk6GJQsqaUBKTNV-1">
          <mxGeometry x="280" y="580" width="90" height="40" as="geometry" />
        </mxCell>
        <mxCell id="XS5C7Bav8lUVdZ2p9Nv9-25" style="edgeStyle=orthogonalEdgeStyle;rounded=0;orthogonalLoop=1;jettySize=auto;html=1;entryX=0.5;entryY=0;entryDx=0;entryDy=0;" edge="1" parent="WIyWlLk6GJQsqaUBKTNV-1" source="XS5C7Bav8lUVdZ2p9Nv9-12" target="XS5C7Bav8lUVdZ2p9Nv9-20">
          <mxGeometry relative="1" as="geometry" />
        </mxCell>
        <mxCell id="XS5C7Bav8lUVdZ2p9Nv9-12" value="pass" style="rounded=0;whiteSpace=wrap;html=1;" vertex="1" parent="WIyWlLk6GJQsqaUBKTNV-1">
          <mxGeometry x="70" y="580" width="90" height="40" as="geometry" />
        </mxCell>
        <mxCell id="XS5C7Bav8lUVdZ2p9Nv9-17" value="true" style="text;html=1;align=center;verticalAlign=middle;resizable=0;points=[];autosize=1;strokeColor=none;fillColor=none;" vertex="1" parent="WIyWlLk6GJQsqaUBKTNV-1">
          <mxGeometry x="130" y="478" width="40" height="30" as="geometry" />
        </mxCell>
        <mxCell id="XS5C7Bav8lUVdZ2p9Nv9-18" value="false" style="text;html=1;align=center;verticalAlign=middle;resizable=0;points=[];autosize=1;strokeColor=none;fillColor=none;" vertex="1" parent="WIyWlLk6GJQsqaUBKTNV-1">
          <mxGeometry x="275" y="478" width="50" height="30" as="geometry" />
        </mxCell>
        <mxCell id="XS5C7Bav8lUVdZ2p9Nv9-20" value="Display Result&lt;br&gt;(Name &amp;amp; Average)" style="shape=parallelogram;html=1;strokeWidth=2;perimeter=parallelogramPerimeter;whiteSpace=wrap;rounded=1;arcSize=12;size=0.23;" vertex="1" parent="WIyWlLk6GJQsqaUBKTNV-1">
          <mxGeometry x="140" y="680" width="160" height="50" as="geometry" />
        </mxCell>
        <mxCell id="XS5C7Bav8lUVdZ2p9Nv9-26" style="edgeStyle=orthogonalEdgeStyle;rounded=0;orthogonalLoop=1;jettySize=auto;html=1;entryX=0.5;entryY=0;entryDx=0;entryDy=0;entryPerimeter=0;" edge="1" parent="WIyWlLk6GJQsqaUBKTNV-1" source="XS5C7Bav8lUVdZ2p9Nv9-20" target="XS5C7Bav8lUVdZ2p9Nv9-1">
          <mxGeometry relative="1" as="geometry" />
        </mxCell>
      </root>
    </mxGraphModel>
  </diagram>
</mxfile>
